Coordinates
version=1
nRows=17
nColumns=38
inDegrees=no

Units are S.I. units (second, meters, Newtons, ...)
If the header above contains a line with 'inDegrees', this indicates whether rotational values are in degrees (yes) or radians (no).

endheader
time	pelvis_tilt	pelvis_list	pelvis_rotation	pelvis_tx	pelvis_ty	pelvis_tz	hip_flexion_r	hip_adduction_r	hip_rotation_r	knee_angle_r	ankle_angle_r	subtalar_angle_r	mtp_angle_r	hip_flexion_l	hip_adduction_l	hip_rotation_l	knee_angle_l	ankle_angle_l	subtalar_angle_l	mtp_angle_l	lumbar_extension	lumbar_bending	lumbar_rotation	arm_flex_r	arm_add_r	arm_rot_r	elbow_flex_r	pro_sup_r	wrist_flex_r	wrist_dev_r	arm_flex_l	arm_add_l	arm_rot_l	elbow_flex_l	pro_sup_l	wrist_flex_l	wrist_dev_l
5.02	-2.83657	1.41764	1.30789	0.754706	0.315591	0.939003	0.261095	-0.0667258	-0.244579	0.613893	0.250191	0	0	0.00715127	-0.0227254	-0.242672	0.204118	0.0970669	0	0	-0.562283	0.0519424	-0.0458323	1.36726	-0.655538	1.5708	1.00476	0.410166	0	0	0.746024	-0.39738	0.365124	1.40659	1.48441	0	0
5.03	-2.8257	1.41674	1.29914	0.754021	0.311642	0.940197	0.264504	-0.064119	-0.249672	0.608354	0.248194	0	0	0.00219433	-0.0260105	-0.241911	0.200337	0.0882808	0	0	-0.557578	0.0538426	-0.0452055	1.35565	-0.654054	1.5708	1.00118	0.408329	0	0	0.739287	-0.398106	0.371783	1.40091	1.481	0	0
5.04	-2.81197	1.41554	1.28767	0.753341	0.307658	0.941399	0.267662	-0.0608037	-0.254693	0.602087	0.24593	0	0	-0.00248961	-0.0298051	-0.240835	0.196687	0.0795142	0	0	-0.552825	0.056401	-0.0446411	1.34392	-0.65249	1.5708	0.997833	0.40577	0	0	0.730966	-0.398228	0.376742	1.39593	1.47898	0	0
5.05	-2.79625	1.41439	1.27411	0.752622	0.303623	0.942622	0.270501	-0.0570478	-0.259916	0.595332	0.244026	0	0	-0.00702143	-0.0340784	-0.239971	0.193703	0.0707655	0	0	-0.54824	0.059228	-0.0443291	1.33239	-0.650218	1.5708	0.994011	0.403006	0	0	0.720958	-0.398257	0.379907	1.39157	1.47833	0	0
5.06	-2.78147	1.414	1.26125	0.751891	0.29955	0.943915	0.272518	-0.0536277	-0.264592	0.588302	0.242648	0	0	-0.0126442	-0.0378145	-0.238767	0.190163	0.0614466	0	0	-0.544436	0.0616657	-0.0444516	1.32125	-0.647437	1.5708	0.990075	0.400948	0	0	0.7098	-0.398137	0.38157	1.38736	1.47888	0	0
5.07	-2.7669	1.4141	1.24853	0.751183	0.295457	0.945206	0.27424	-0.0507491	-0.269364	0.581821	0.242497	0	0	-0.0190879	-0.0410728	-0.23725	0.185937	0.0518853	0	0	-0.541245	0.0640355	-0.0449011	1.31063	-0.644647	1.5708	0.986794	0.399291	0	0	0.697858	-0.397879	0.382289	1.38372	1.48044	0	0
5.08	-2.75173	1.41392	1.23504	0.750449	0.29136	0.946404	0.276427	-0.0475775	-0.273418	0.575859	0.242332	0	0	-0.025119	-0.0446171	-0.236979	0.182101	0.042932	0	0	-0.538013	0.0665948	-0.0448754	1.30034	-0.642817	1.5708	0.984981	0.397831	0	0	0.685675	-0.39673	0.381658	1.38051	1.48332	0	0
5.09	-2.73588	1.41358	1.22101	0.749709	0.287252	0.947526	0.278743	-0.0441713	-0.277081	0.570047	0.241835	0	0	-0.0309738	-0.0485579	-0.236795	0.178675	0.034063	0	0	-0.534822	0.0694138	-0.0448033	1.2901	-0.641278	1.5708	0.983677	0.395915	0	0	0.673352	-0.395002	0.379364	1.37818	1.48783	0	0
5.1	-2.72212	1.41301	1.20917	0.749011	0.283166	0.948585	0.281767	-0.0413456	-0.280787	0.564996	0.241435	0	0	-0.0364216	-0.0521488	-0.236066	0.175169	0.0248962	0	0	-0.531321	0.0721087	-0.0450314	1.27964	-0.639478	1.5708	0.982176	0.394039	0	0	0.660934	-0.39272	0.375505	1.37603	1.49389	0	0
5.11	-2.71227	1.41299	1.20086	0.748334	0.279105	0.949665	0.285043	-0.0395926	-0.283935	0.561004	0.241138	0	0	-0.0423711	-0.0548111	-0.235892	0.171255	0.0156742	0	0	-0.528259	0.0739812	-0.0456419	1.26917	-0.637212	1.5708	0.980818	0.392378	0	0	0.648424	-0.390421	0.370419	1.37432	1.50084	0	0
5.12	-2.70187	1.414	1.19199	0.747682	0.275001	0.950832	0.287577	-0.0385538	-0.28732	0.557927	0.241749	0	0	-0.04948	-0.0570738	-0.235963	0.167047	0.00633822	0	0	-0.526345	0.075609	-0.0466723	1.25831	-0.635267	1.5708	0.980963	0.391507	0	0	0.63595	-0.388541	0.365082	1.37296	1.50837	0	0
5.13	-2.68986	1.415	1.1817	0.747029	0.270873	0.951977	0.290141	-0.0371221	-0.289442	0.555456	0.240502	0	0	-0.0565323	-0.0597399	-0.236373	0.163302	-0.00257185	0	0	-0.524705	0.077603	-0.0475003	1.24699	-0.634964	1.5708	0.984113	0.391662	0	0	0.623732	-0.38684	0.360459	1.37149	1.51425	0	0
5.14	-2.68017	1.41622	1.17371	0.746406	0.266733	0.953094	0.293011	-0.0362752	-0.291103	0.55391	0.238646	0	0	-0.0636391	-0.061953	-0.236962	0.159611	-0.0118475	0	0	-0.523291	0.0794131	-0.0482434	1.23609	-0.635392	1.5708	0.98823	0.391549	0	0	0.611781	-0.385384	0.35625	1.36878	1.52097	0	0
5.15	-2.67201	1.41736	1.1675	0.745886	0.262602	0.954111	0.296499	-0.0362964	-0.293531	0.553525	0.238768	0	0	-0.0703195	-0.0638995	-0.23725	0.156224	-0.0213038	0	0	-0.521703	0.0814258	-0.049078	1.22558	-0.636224	1.5708	0.992307	0.390894	0	0	0.600031	-0.383756	0.351816	1.36484	1.531	0	0
5.16	-2.61921	1.43235	1.11647	0.745428	0.259691	0.955975	0.286851	-0.0365765	-0.294006	0.556929	0.238972	0	0	-0.0906407	-0.0661818	-0.239156	0.156074	-0.0275306	0	0	-0.55273	0.0872178	-0.058887	1.24689	-0.639144	1.5708	1.02887	0.388595	0	0	0.576751	-0.401153	0.325644	1.41231	1.53511	0	0
5.17	-2.60278	1.4346	1.10265	0.745028	0.255523	0.957005	0.288871	-0.0365474	-0.29666	0.556788	0.237366	0	0	-0.0985923	-0.0685081	-0.238862	0.15317	-0.0362926	0	0	-0.553196	0.0900844	-0.0614943	1.23884	-0.639428	1.5708	1.03387	0.386038	0	0	0.561902	-0.40083	0.317221	1.4156	1.54123	0	0
5.18	-2.58679	1.43618	1.09015	0.744724	0.251252	0.957925	0.291292	-0.0372763	-0.303184	0.5565	0.238491	0	0	-0.105785	-0.0711229	-0.237732	0.150362	-0.0449754	0	0	-0.552252	0.0934635	-0.0638225	1.22865	-0.640191	1.5708	1.03687	0.384903	0	0	0.548429	-0.399247	0.311063	1.41543	1.55023	0	0
